<svg xmlns="http://www.w3.org/2000/svg" width="16" height="16" viewBox="0 0 16 16" fill="none">
    <g clip-path="url(#clip0_153_546)">
        <path
            d="M2.61115 6.86312C2.56029 6.91496 2.4996 6.95613 2.43263 6.98424C2.36567 7.01235 2.29378 7.02683 2.22115 7.02683C2.14853 7.02683 2.07663 7.01235 2.00967 6.98424C1.9427 6.95613 1.88202 6.91496 1.83115 6.86312C1.72762 6.75779 1.66961 6.61601 1.66961 6.46832C1.66961 6.32063 1.72762 6.17885 1.83115 6.07352L6.65595 1.19992C7.74395 0.35512 8.83835 -0.0504801 9.92795 0.00471989C11.3008 0.0751199 12.3696 0.59832 13.2768 1.45672C14.2016 2.33192 14.8 3.58072 14.8 5.09432C14.8 6.25592 14.4624 7.27832 13.7496 8.18552L6.94715 15.1935C6.25915 15.7575 5.49435 16.0303 4.67515 15.9975C3.63515 15.9543 2.86155 15.6183 2.28635 15.0495C1.61275 14.3847 1.19995 13.5679 1.19995 12.4695C1.19995 11.5959 1.50155 10.7895 2.12395 10.0327L8.11115 3.91992C8.59115 3.40792 9.06075 3.10392 9.54075 3.03032C9.86113 2.97986 10.189 3.00851 10.4957 3.11379C10.8025 3.21907 11.0789 3.39777 11.3008 3.63432C11.7264 4.08472 11.9088 4.64632 11.8448 5.28552C11.8008 5.72152 11.6224 6.12312 11.2944 6.50792L5.79035 12.1463C5.73982 12.1983 5.67943 12.2398 5.61272 12.2682C5.546 12.2967 5.47429 12.3116 5.40176 12.312C5.32923 12.3125 5.25734 12.2985 5.19027 12.2708C5.12321 12.2432 5.06232 12.2025 5.01115 12.1511C4.90698 12.0464 4.8481 11.905 4.8472 11.7573C4.8463 11.6096 4.90346 11.4675 5.00635 11.3615L10.484 5.75192C10.644 5.56392 10.728 5.37432 10.748 5.17272C10.78 4.85272 10.7032 4.61672 10.504 4.40632C10.4033 4.29856 10.2777 4.21735 10.1381 4.16989C9.99852 4.12244 9.84939 4.11022 9.70395 4.13432C9.50955 4.16392 9.23755 4.34072 8.90235 4.69752L2.93995 10.7831C2.51035 11.3071 2.30235 11.8631 2.30235 12.4703C2.30235 13.2335 2.57835 13.7799 3.05595 14.2511C3.43595 14.6271 3.95195 14.8511 4.71995 14.8831C5.26395 14.9047 5.76795 14.7247 6.20635 14.3695L12.924 7.44952C13.44 6.78792 13.6976 6.00952 13.6976 5.09512C13.6976 3.90952 13.236 2.94792 12.5232 2.27272C11.7952 1.58312 10.9632 1.17672 9.87275 1.12072C9.06635 1.07912 8.22075 1.39272 7.37915 2.03752L2.61115 6.86312Z"
            fill="black" />
    </g>
    <defs>
        <clipPath id="clip0_153_546">
            <rect width="16" height="16" fill="white" />
        </clipPath>
    </defs>
</svg>