<svg xmlns="http://www.w3.org/2000/svg" width="18" height="24" viewBox="0 0 18 24" fill="none">
    <path
        d="M10.5 9.75C10.5 10.1478 10.342 10.5294 10.0607 10.8107C9.77936 11.092 9.39782 11.25 9 11.25H4.5L1.5 14.25V6C1.5 5.175 2.175 4.5 3 4.5H9C9.39782 4.5 9.77936 4.65804 10.0607 4.93934C10.342 5.22064 10.5 5.60218 10.5 6V9.75Z"
        stroke="currentColor" stroke-width="1.5" stroke-linecap="round" stroke-linejoin="round" />
    <path
        d="M13.5 9.75H15C15.3978 9.75 15.7794 9.90804 16.0607 10.1893C16.342 10.4706 16.5 10.8522 16.5 11.25V19.5L13.5 16.5H9C8.60218 16.5 8.22064 16.342 7.93934 16.0607C7.65804 15.7794 7.5 15.3978 7.5 15V14.25"
        stroke="currentColor" stroke-width="1.5" stroke-linecap="round" stroke-linejoin="round" />
</svg>