<svg xmlns="http://www.w3.org/2000/svg" width="21" height="21" viewBox="0 0 21 21" fill="none">
    <path
        d="M16.625 6.5H13.125V3.875C13.125 3.64294 13.0328 3.42038 12.8687 3.25628C12.7046 3.09219 12.4821 3 12.25 3H5.25C5.01794 3 4.79538 3.09219 4.63128 3.25628C4.46719 3.42038 4.375 3.64294 4.375 3.875V10H0.875C0.642936 10 0.420376 10.0922 0.256282 10.2563C0.0921872 10.4204 0 10.6429 0 10.875V17.875C0 18.1071 0.0921872 18.3296 0.256282 18.4937C0.420376 18.6578 0.642936 18.75 0.875 18.75H16.625C16.8571 18.75 17.0796 18.6578 17.2437 18.4937C17.4078 18.3296 17.5 18.1071 17.5 17.875V7.375C17.5 7.14294 17.4078 6.92038 17.2437 6.75628C17.0796 6.59219 16.8571 6.5 16.625 6.5ZM3.5 17H1.75V15.25H3.5V17ZM3.5 13.5H1.75V11.75H3.5V13.5ZM7.875 17H6.125V15.25H7.875V17ZM7.875 13.5H6.125V11.75H7.875V13.5ZM7.875 10H6.125V8.25H7.875V10ZM7.875 6.5H6.125V4.75H7.875V6.5ZM11.375 17H9.625V15.25H11.375V17ZM11.375 13.5H9.625V11.75H11.375V13.5ZM11.375 10H9.625V8.25H11.375V10ZM11.375 6.5H9.625V4.75H11.375V6.5ZM15.75 17H14V15.25H15.75V17ZM15.75 13.5H14V11.75H15.75V13.5ZM15.75 10H14V8.25H15.75V10Z"
        fill="currentColor" />
</svg>