<svg xmlns="http://www.w3.org/2000/svg" width="12" height="12" viewBox="0 0 12 12" fill="none">
    <path
        d="M9.375 1.49993H7.67531C7.46461 1.26402 7.20645 1.07527 6.91775 0.946037C6.62905 0.816804 6.31631 0.75 6 0.75C5.68369 0.75 5.37095 0.816804 5.08225 0.946037C4.79355 1.07527 4.53539 1.26402 4.32469 1.49993H2.625C2.42609 1.49993 2.23532 1.57895 2.09467 1.7196C1.95402 1.86025 1.875 2.05102 1.875 2.24993V10.1249C1.875 10.3238 1.95402 10.5146 2.09467 10.6553C2.23532 10.7959 2.42609 10.8749 2.625 10.8749H9.375C9.57391 10.8749 9.76468 10.7959 9.90533 10.6553C10.046 10.5146 10.125 10.3238 10.125 10.1249V2.24993C10.125 2.05102 10.046 1.86025 9.90533 1.7196C9.76468 1.57895 9.57391 1.49993 9.375 1.49993ZM6 1.49993C6.39782 1.49993 6.77936 1.65797 7.06066 1.93927C7.34196 2.22058 7.5 2.60211 7.5 2.99993H4.5C4.5 2.60211 4.65804 2.22058 4.93934 1.93927C5.22064 1.65797 5.60218 1.49993 6 1.49993ZM9.375 10.1249H2.625V2.24993H3.87891C3.7936 2.49078 3.75001 2.74442 3.75 2.99993V3.37493C3.75 3.47439 3.78951 3.56977 3.85984 3.6401C3.93016 3.71042 4.02554 3.74993 4.125 3.74993H7.875C7.97446 3.74993 8.06984 3.71042 8.14017 3.6401C8.21049 3.56977 8.25 3.47439 8.25 3.37493V2.99993C8.24999 2.74442 8.2064 2.49078 8.12109 2.24993H9.375V10.1249Z"
        fill="black" />
</svg>