<svg xmlns="http://www.w3.org/2000/svg" width="16" height="16" viewBox="0 0 16 16" fill="none">
    <path
        d="M2.31871 1.60328C2.23213 1.57818 2.14038 1.57694 2.05317 1.59971C1.96595 1.62247 1.88651 1.66839 1.82325 1.73261C1.75999 1.79682 1.71527 1.87694 1.69381 1.96449C1.67236 2.05204 1.67497 2.14376 1.70137 2.22995L3.32271 7.50062H9.00004C9.13265 7.50062 9.25982 7.55329 9.35359 7.64706C9.44736 7.74083 9.50004 7.86801 9.50004 8.00062C9.50004 8.13322 9.44736 8.2604 9.35359 8.35417C9.25982 8.44794 9.13265 8.50062 9.00004 8.50062H3.32271L1.70137 13.7699C1.67497 13.8561 1.67236 13.9479 1.69381 14.0354C1.71527 14.123 1.75999 14.2031 1.82325 14.2673C1.88651 14.3315 1.96595 14.3774 2.05317 14.4002C2.14038 14.423 2.23213 14.4217 2.31871 14.3966C6.72868 13.1142 10.8873 11.0882 14.6154 8.40595C14.6798 8.35964 14.7323 8.29867 14.7685 8.22808C14.8047 8.15748 14.8235 8.07928 14.8235 7.99995C14.8235 7.92061 14.8047 7.84242 14.7685 7.77182C14.7323 7.70122 14.6798 7.64025 14.6154 7.59395C10.8873 4.91171 6.72869 2.88571 2.31871 1.60328Z"
        fill="white" />
</svg>