<svg xmlns="http://www.w3.org/2000/svg" width="18" height="22" viewBox="0 0 18 22" fill="none">
    <path
        d="M10.9383 2.5H6.33917C5.91583 2.5 5.57265 2.83579 5.57265 3.25V4.75C5.57265 5.16421 5.91583 5.5 6.33917 5.5H10.9383C11.3616 5.5 11.7048 5.16421 11.7048 4.75V3.25C11.7048 2.83579 11.3616 2.5 10.9383 2.5Z"
        stroke="black" stroke-width="1.5" stroke-linecap="round" stroke-linejoin="round" />
    <path
        d="M7.42763 10.4575C7.57711 10.3112 7.75458 10.1952 7.94988 10.1161C8.14519 10.0369 8.35452 9.99615 8.56592 9.99615C8.77731 9.99615 8.98664 10.0369 9.18195 10.1161C9.37726 10.1952 9.55472 10.3112 9.7042 10.4575C9.85368 10.6037 9.97225 10.7774 10.0532 10.9685C10.1341 11.1596 10.1757 11.3644 10.1757 11.5712C10.1757 11.7781 10.1341 11.9829 10.0532 12.174C9.97225 12.3651 9.85368 12.5387 9.7042 12.685L5.53433 16.75L2.50658 17.5L3.26543 14.5375L7.42763 10.4575Z"
        stroke="black" stroke-width="1.5" stroke-linecap="round" stroke-linejoin="round" />
    <path
        d="M11.7048 4H13.2378C13.6444 4 14.0344 4.15804 14.3219 4.43934C14.6094 4.72064 14.7709 5.10218 14.7709 5.5V16C14.7709 16.3978 14.6094 16.7794 14.3219 17.0607C14.0344 17.342 13.6444 17.5 13.2378 17.5H9.02199"
        stroke="black" stroke-width="1.5" stroke-linecap="round" stroke-linejoin="round" />
    <path
        d="M2.50658 11.125V5.5C2.50658 5.10218 2.66809 4.72064 2.95559 4.43934C3.24309 4.15804 3.63303 4 4.03962 4H5.57266"
        stroke="black" stroke-width="1.5" stroke-linecap="round" stroke-linejoin="round" />
</svg>